<?xml version="1.0" encoding="iso-8859-1"?>
<!-- Generator: Adobe Illustrator 19.0.1, SVG Export Plug-In . SVG Version: 6.00 Build 0)  -->
<svg version="1.1" id="Layer_1" xmlns="http://www.w3.org/2000/svg" xmlns:xlink="http://www.w3.org/1999/xlink" x="0px" y="0px"
	 viewBox="0 0 104.654 88.576" style="enable-background:new 0 0 104.654 88.576;" xml:space="preserve">
<g id="XMLID_110_">
	<g id="XMLID_111_">
		<path id="XMLID_115_" style="fill:#D1D2D3;" d="M72.667,0.355c-1.594-0.797-2.898,0.009-2.898,1.791v70.89L98.858,87.58
			c3.201,1.601,5.796,0.48,5.796-2.502V16.815c0-0.286-0.162-0.547-0.417-0.675L72.667,0.355z"/>
		<path id="XMLID_114_" style="fill:#A6A8AC;" d="M34.885,55.594L68.071,1.666c0.934-1.518,3.002-2.107,4.596-1.31l31.606,15.803
			c0.205,0.102,0.278,0.358,0.158,0.553L69.769,73.036L34.885,55.594z"/>
		<path id="XMLID_113_" style="fill:#999999;" d="M4.83,1.321c-2.656-1.328-3.556-0.346-2,2.184l32.054,52.088l34.885,17.442
			L34.96,16.471c-0.049-0.08-0.119-0.144-0.203-0.186L4.83,1.321z"/>
		<path id="XMLID_112_" style="fill:#595A5C;" d="M34.885,85.078c0,2.97-2.173,4.313-4.83,2.985L2.898,74.485
			C1.304,73.688,0,71.578,0,69.796V3.226C0,0.85,1.739-0.224,3.864,0.838l30.833,15.417c0.115,0.057,0.187,0.175,0.187,0.303V85.078
			z"/>
	</g>
</g>
</svg>
